<svg width="24" height="24" viewBox="0 0 24 24" xmlns="http://www.w3.org/2000/svg">
  <path
    d="M5 4.75C5 4.33579 5.33579 4 5.75 4H10.5C12.433 4 14 5.567 14 7.5V19.25C14 19.6642 13.6642 20 13.25 20C12.8358 20 12.5 19.6642 12.5 19.25V7.5C12.5 6.39543 11.6046 5.5 10.5 5.5H6.5V17.25H10.75C11.1642 17.25 11.5 17.5858 11.5 18C11.5 18.4142 11.1642 18.75 10.75 18.75H5.75C5.33579 18.75 5 18.4142 5 18V4.75Z"
    fill="currentColor"
  />
  <path
    d="M19 4.75C19 4.33579 18.6642 4 18.25 4H13.5C11.567 4 10 5.567 10 7.5V19.25C10 19.6642 10.3358 20 10.75 20C11.1642 20 11.5 19.6642 11.5 19.25V7.5C11.5 6.39543 12.3954 5.5 13.5 5.5H17.5V17.25H13.25C12.8358 17.25 12.5 17.5858 12.5 18C12.5 18.4142 12.8358 18.75 13.25 18.75H18.25C18.6642 18.75 19 18.4142 19 18V4.75Z"
    fill="currentColor"
  />
  <path
    d="M9 8.25C9 7.83579 8.66421 7.5 8.25 7.5H7.75C7.33579 7.5 7 7.83579 7 8.25C7 8.66421 7.33579 9 7.75 9H8.25C8.66421 9 9 8.66421 9 8.25Z"
    fill="currentColor"
  />
  <path
    d="M17 8.25C17 7.83579 16.6642 7.5 16.25 7.5H15.75C15.3358 7.5 15 7.83579 15 8.25C15 8.66421 15.3358 9 15.75 9H16.25C16.6642 9 17 8.66421 17 8.25Z"
    fill="currentColor"
  />
</svg>
